# xmcd
#
# Track frame offsets:
#	150
#	8150
#	31425
#	50687
#	68225
#	74087
#	87550
#	106225
#	120612
#	127775
#	146400
#	166137
#	181862
#	205437
#	210625
#	230512
#	246737
#	260537
#	280450
#	299400
#	318800
#
# Disc length: 4323 seconds
#
# Revision: 0
# Processed by: cddbd v1.5PL3 Copyright (c) Steve Scherf et al.
# Submitted via: dBpowerAMP V4.0
#
DISCID=4510e115
DTITLE=林志穎 - 別了晴 雨 的回憶
DYEAR=1994
DGENRE=
TTITLE0=雨天灑著回憶 (真情傾訴)
TTITLE1=十七歲的雨季
TTITLE2=今年夏天
TTITLE3=雨季
TTITLE4=烏雲中的曙光 (真情傾訴)
TTITLE5=勇敢接受我的愛
TTITLE6=戲夢
TTITLE7=我有一顆熾熱的心
TTITLE8=雨後的晴心 (真情傾訴)
TTITLE9=我對天空說愛你
TTITLE10=為什麼受傷的總是我
TTITLE11=我的心是一個美麗的窗口
TTITLE12=傷心只到這裡
TTITLE13=陽光是一份禮物 (真情傾訴)
TTITLE14=生日禮物
TTITLE15=用心相信
TTITLE16=快樂要自己追逐
TTITLE17=心雲 (心語篇)
TTITLE18=全新的愛
TTITLE19=牽掛你的我
TTITLE20=回憶的天空是黑白 (真情傾訴)
EXTD=
EXTT0=
EXTT1=
EXTT2=
EXTT3=
EXTT4=
EXTT5=
EXTT6=
EXTT7=
EXTT8=
EXTT9=
EXTT10=
EXTT11=
EXTT12=
EXTT13=
EXTT14=
EXTT15=
EXTT16=
EXTT17=
EXTT18=
EXTT19=
EXTT20=
PLAYORDER=
